<?xml version="1.0" standalone="no"?>
<!DOCTYPE svg PUBLIC "-//W3C//DTD SVG 20010904//EN"
 "http://www.w3.org/TR/2001/REC-SVG-20010904/DTD/svg10.dtd">
<svg version="1.0" xmlns="http://www.w3.org/2000/svg"
 width="1024.000000pt" height="1024.000000pt" viewBox="0 0 1024.000000 1024.000000"
 preserveAspectRatio="xMidYMid meet">

<g transform="translate(0.000000,1024.000000) scale(0.100000,-0.100000)"
fill="#000000" stroke="none">
<path d="M0 5120 l0 -5120 5120 0 5120 0 0 5120 0 5120 -5120 0 -5120 0 0
-5120z m5072 2863 c32 -20 68 -70 68 -97 0 -10 -11 -32 -25 -50 -14 -18 -25
-38 -25 -43 0 -6 16 -23 35 -37 31 -24 35 -32 35 -72 0 -38 -6 -51 -37 -84
-36 -39 -42 -41 -138 -55 -55 -8 -116 -15 -136 -15 l-36 0 -2 63 c-2 76 -28
298 -41 352 -5 22 -8 41 -6 42 6 7 197 21 234 17 24 -2 57 -12 74 -21z m355
-65 c-4 -46 -9 -135 -12 -198 -9 -182 -9 -180 -55 -180 l-40 0 0 63 c0 34 5
137 12 230 l12 167 44 0 45 0 -6 -82z m263 47 c93 -20 302 -76 313 -85 11 -9
-14 -100 -28 -100 -5 0 -38 9 -72 19 -35 11 -65 16 -67 13 -2 -4 -21 -81 -41
-172 -20 -91 -39 -168 -41 -172 -7 -12 -94 23 -94 38 0 8 14 69 30 137 46 184
48 197 41 201 -3 2 -35 10 -70 17 l-63 12 6 36 c3 20 6 44 6 54 0 9 1 17 3 17
1 0 36 -7 77 -15z m-1102 -62 c6 -32 27 -132 47 -222 19 -90 34 -166 32 -168
-2 -1 -24 -6 -49 -9 l-44 -6 -22 118 c-12 66 -30 165 -41 222 l-18 102 31 9
c50 15 52 14 64 -46z m-268 -113 c27 -81 101 -287 114 -320 5 -12 -4 -21 -32
-33 -21 -9 -41 -17 -45 -17 -3 0 -18 38 -33 85 -21 64 -32 84 -44 81 -100 -28
-128 -37 -144 -49 -17 -13 -17 -16 13 -86 17 -40 31 -78 31 -83 0 -13 -42 -47
-58 -48 -7 0 -17 12 -24 28 -14 36 -120 261 -158 336 -16 33 -28 62 -26 64 3
2 19 7 38 12 18 4 41 11 51 15 12 5 17 2 17 -10 0 -18 66 -165 74 -165 3 0 22
11 42 25 21 14 57 31 81 37 24 6 43 16 43 24 0 7 -12 44 -26 81 -40 106 -39
101 -7 106 60 9 63 7 93 -83z m1933 0 c4 -3 -3 -31 -17 -61 -13 -30 -38 -98
-55 -152 -25 -79 -80 -207 -97 -226 -4 -5 -84 42 -84 50 0 4 32 86 71 181 39
95 75 190 82 210 l11 36 40 -15 c23 -9 44 -19 49 -23z m-2515 -270 c-5 -140
-2 -149 50 -165 28 -8 212 -95 212 -100 0 -2 -21 -15 -47 -29 -40 -23 -48 -24
-62 -12 -9 8 -46 23 -82 34 l-67 19 -6 -45 c-3 -25 -6 -71 -6 -102 0 -56 -1
-59 -36 -80 -23 -13 -41 -17 -46 -12 -6 6 -5 57 0 131 6 67 8 130 5 140 -3 12
-21 22 -55 30 -57 13 -198 72 -198 83 0 4 18 20 40 34 l40 27 52 -23 c29 -13
65 -26 79 -30 26 -8 27 -6 33 44 3 28 6 72 6 97 0 44 2 46 43 66 23 11 44 21
46 22 2 0 2 -57 -1 -129z m2926 67 c79 -42 107 -85 114 -176 5 -79 -6 -122
-49 -181 -57 -79 -197 -115 -292 -75 -49 20 -107 73 -123 112 -20 48 -17 169
5 218 61 134 203 176 345 102z m398 -294 c17 -22 26 -44 23 -57 -2 -12 -9 -77
-15 -146 -6 -69 -12 -135 -14 -147 -5 -33 4 -28 47 25 21 26 62 74 92 107 l54
60 41 -40 c22 -21 40 -42 40 -45 0 -3 -16 -16 -36 -30 -32 -21 -181 -188 -255
-285 l-26 -34 -31 32 -31 32 5 170 5 170 -91 -95 -91 -95 -32 38 -33 38 133
137 c74 75 144 152 156 169 12 18 24 33 27 33 3 -1 17 -17 32 -37z m-3789 -86
c-10 -10 -52 -46 -93 -79 -41 -34 -76 -64 -78 -67 -1 -4 13 -25 32 -47 l34
-39 76 74 77 74 29 -28 29 -28 -36 -44 c-20 -25 -54 -60 -76 -78 l-39 -34 19
-24 c39 -53 49 -53 118 4 36 29 76 69 90 90 l27 37 37 -36 38 -37 -126 -127
-126 -128 -53 53 c-30 28 -77 79 -104 112 -27 33 -81 92 -120 132 l-70 72 28
18 c27 17 59 45 193 169 l55 52 28 -36 c27 -34 28 -36 11 -55z m4308 -404 c58
-73 168 -248 210 -336 25 -51 22 -61 -23 -72 -25 -7 -29 -3 -69 77 -48 95
-130 226 -198 313 -65 83 -64 81 -39 104 21 20 23 20 41 3 11 -9 46 -49 78
-89z m-4742 78 l25 -19 -48 -53 c-64 -71 -165 -225 -217 -331 -24 -49 -49 -88
-55 -88 -7 0 -22 9 -35 20 l-24 19 45 87 c25 48 71 126 102 173 56 84 162 211
176 211 4 0 18 -9 31 -19z m2441 -30 c0 -12 -127 -14 -135 -1 -4 6 18 10 64
10 39 0 71 -4 71 -9z m107 -7 c-3 -3 -12 -4 -19 -1 -8 3 -5 6 6 6 11 1 17 -2
13 -5z m-50 -165 c481 1 699 -1 713 -9 12 -7 20 -21 20 -38 l0 -27 -925 -1
-925 -2 0 28 c0 55 19 59 245 52 99 -3 492 -4 872 -3z m-2304 -67 c33 -29 15
-106 -29 -122 -34 -13 -66 6 -84 50 -30 72 52 125 113 72z m4322 22 c8 -4 22
-19 31 -35 39 -77 -51 -145 -111 -84 -59 58 2 149 80 119z m-4620 -445 c4 -6
-12 -26 -34 -46 -76 -65 -71 4 -71 -942 0 -577 4 -866 11 -901 14 -64 63 -130
111 -148 63 -24 121 -9 178 46 31 30 52 61 59 87 7 28 11 309 11 903 0 844 0
864 -20 902 -11 22 -34 49 -50 62 -17 12 -30 25 -30 30 0 4 60 7 133 5 72 -1
178 2 235 6 89 8 102 7 102 -7 0 -8 -14 -26 -31 -38 -16 -13 -40 -39 -52 -58
-22 -35 -22 -39 -22 -503 l0 -469 38 -30 c56 -45 44 -80 -25 -69 -5 0 -9 0
-10 -2 -1 -1 -4 -177 -8 -392 -5 -346 -7 -396 -24 -440 -62 -166 -213 -278
-392 -292 -180 -14 -375 111 -447 287 -21 53 -22 71 -27 425 l-5 369 -59 40
-60 39 22 18 c12 9 40 20 62 24 l40 7 0 461 c0 287 -4 476 -10 499 -6 21 -26
54 -45 74 -19 20 -35 41 -35 45 0 5 84 10 188 12 103 1 204 3 224 5 20 1 40
-3 43 -9z m2760 1 c4 -6 -12 -31 -34 -55 -50 -54 -57 -80 -43 -158 6 -34 25
-145 42 -247 17 -102 51 -300 75 -440 76 -436 142 -827 175 -1030 37 -230 47
-263 100 -315 22 -22 40 -45 40 -52 0 -10 -47 -13 -225 -13 -124 0 -225 4
-225 9 0 4 8 19 19 32 10 13 25 38 34 55 17 33 15 62 -24 334 l-13 86 -177 2
-176 3 -6 -28 c-15 -77 -40 -352 -33 -377 4 -16 25 -47 47 -69 22 -22 38 -42
36 -44 -2 -2 -104 -2 -226 -1 l-223 3 22 25 c60 68 90 175 130 460 11 80 31
199 44 266 24 116 54 308 116 744 17 113 36 239 45 280 28 145 57 372 51 404
-4 18 -22 51 -41 73 -19 23 -35 44 -35 47 0 3 88 5 197 6 108 0 199 2 201 5
10 10 101 5 107 -5z m-3720 -15 c135 -35 249 -138 307 -277 41 -97 63 -179 55
-200 -3 -9 -18 -19 -34 -22 -43 -11 -127 -70 -192 -135 -33 -33 -62 -57 -64
-54 -3 2 -3 67 0 143 5 117 3 147 -11 184 -32 84 -128 145 -204 131 -78 -15
-130 -63 -151 -142 -17 -61 -15 -1461 1 -1516 17 -57 84 -126 132 -137 71 -16
138 8 180 63 42 54 48 85 48 224 0 134 7 168 26 113 19 -53 76 -130 108 -145
55 -26 69 -20 116 47 l43 61 3 -34 c6 -56 -28 -260 -53 -315 -49 -110 -182
-219 -314 -258 -195 -57 -441 65 -542 270 l-34 69 -3 375 -3 375 -35 23 c-19
12 -37 29 -41 38 -8 20 15 44 43 44 13 0 25 1 26 3 1 1 4 171 7 377 l6 375 45
79 c74 130 136 181 280 232 78 28 169 31 255 9z m2384 -8 c142 -42 240 -118
295 -228 42 -83 43 -94 56 -376 10 -246 5 -304 -37 -387 -31 -61 -119 -155
-184 -197 -27 -17 -49 -34 -49 -38 0 -3 10 -13 23 -20 59 -37 140 -120 163
-167 l25 -52 -7 -258 c-9 -346 5 -419 93 -474 l43 -28 -19 -23 c-18 -22 -26
-24 -119 -24 -95 0 -102 1 -143 30 -24 17 -57 53 -74 79 l-30 49 -5 331 c-3
230 -9 337 -17 352 -17 29 -85 89 -125 110 -19 10 -65 19 -111 22 l-78 5 3
-424 c3 -470 -1 -439 76 -521 l45 -48 -252 0 -253 0 42 48 c75 84 73 63 71
574 0 251 -4 464 -7 472 -3 9 -33 33 -66 53 -52 32 -58 38 -43 49 9 7 39 18
66 24 l49 12 0 461 c0 442 -1 464 -21 507 -11 25 -36 59 -56 76 l-36 30 314
-1 c254 -2 324 -5 368 -18z m2639 -7 c-5 -14 -9 -126 -9 -250 0 -124 -3 -231
-8 -239 -14 -22 -28 -5 -51 63 -25 76 -65 142 -109 179 -29 24 -41 27 -102 27
l-69 0 0 -425 c0 -397 1 -426 18 -431 58 -18 68 -47 20 -60 l-33 -10 0 -489 0
-490 27 -45 c14 -25 38 -56 52 -69 14 -14 26 -28 26 -33 0 -11 -452 -10 -470
2 -12 8 -9 15 21 39 20 17 45 47 55 68 21 42 20 13 26 1386 l3 557 -92 0 c-88
0 -94 -1 -127 -30 -38 -34 -68 -91 -85 -165 -14 -58 -27 -83 -38 -71 -4 4 -10
114 -13 244 -3 130 -9 244 -13 252 -6 13 51 15 487 15 l494 0 -10 -25z m745
14 c160 -41 272 -149 324 -311 22 -71 23 -85 23 -413 l0 -339 45 -31 c25 -17
45 -34 45 -38 0 -5 -20 -18 -45 -30 l-46 -22 1 -373 c1 -370 -2 -402 -35 -468
-84 -164 -228 -251 -420 -251 -221 -1 -384 123 -449 341 -13 46 -16 111 -16
390 l0 335 -47 48 c-39 40 -44 49 -33 63 7 8 18 15 25 15 6 0 20 9 31 21 18
20 19 45 24 378 5 342 6 358 28 411 47 110 115 181 230 239 105 53 204 64 315
35z m1201 -5 c140 -25 261 -112 320 -229 53 -106 58 -148 54 -443 -3 -254 -4
-264 -27 -312 -34 -69 -134 -166 -209 -201 -34 -16 -61 -32 -61 -35 -1 -3 25
-22 57 -42 64 -39 135 -111 155 -155 8 -18 13 -128 17 -342 5 -305 6 -317 29
-368 14 -32 42 -68 70 -92 25 -21 42 -42 38 -46 -4 -4 -37 -11 -73 -16 -122
-14 -197 17 -260 109 -58 83 -65 130 -62 440 2 307 4 296 -80 358 -53 39 -112
60 -189 69 l-53 7 0 -422 c0 -466 -1 -455 65 -519 19 -19 35 -38 35 -42 0 -4
-106 -8 -235 -8 -129 0 -235 4 -235 8 0 4 15 23 34 41 19 19 44 55 55 82 21
47 21 62 19 506 l-3 458 -58 39 c-66 44 -65 51 15 92 l48 24 0 457 c0 445 -1
458 -21 500 -12 24 -34 54 -50 65 -16 12 -29 25 -29 29 0 11 566 1 634 -12z
m-7783 -1068 c33 -34 38 -75 11 -107 -41 -51 -105 -54 -142 -7 -70 89 50 194
131 114z m8464 3 c33 -35 41 -83 21 -122 -17 -33 -34 -42 -76 -42 -42 0 -59 9
-75 41 -24 45 -19 87 14 120 38 38 83 39 116 3z m-6552 -34 c19 -17 2 -45 -29
-48 -34 -3 -84 13 -84 27 0 25 34 43 69 36 20 -4 40 -10 44 -15z m-286 -1392
c11 -13 49 -70 83 -128 76 -126 183 -273 259 -355 30 -33 67 -72 80 -88 l25
-27 -28 -28 -27 -27 -55 60 c-142 155 -252 302 -351 469 -63 106 -69 146 -23
146 9 0 26 -10 37 -22z m5168 -2 c26 -19 19 -32 -110 -227 -114 -172 -195
-277 -277 -357 l-54 -52 -24 25 -24 25 50 53 c28 28 69 75 91 102 48 59 227
331 263 398 27 50 50 59 85 33z m-4641 -157 c33 -39 33 -54 -3 -90 -32 -31
-50 -35 -84 -17 -52 27 -61 75 -22 113 35 35 76 33 109 -6z m4171 -15 c18 -28
14 -50 -16 -88 -29 -37 -70 -35 -103 5 -30 35 -32 56 -10 87 33 47 97 45 129
-4z m-1195 -194 c0 -22 -5 -31 -22 -35 -13 -3 -427 -7 -922 -8 l-898 -3 -9 25
c-6 13 -6 28 -2 32 12 12 149 15 1036 17 l817 2 0 -30z m-2496 -94 c53 -22
113 -83 142 -144 l26 -55 -23 -18 c-40 -31 -61 -24 -89 28 -33 63 -88 96 -148
88 -58 -7 -96 -31 -116 -72 -48 -100 17 -200 125 -191 34 3 42 -1 56 -23 22
-37 13 -53 -43 -74 -42 -16 -56 -17 -103 -7 -104 22 -155 107 -149 247 3 71 7
87 32 124 37 53 77 82 135 97 62 17 115 17 155 0z m3296 -5 c59 -31 75 -63 75
-144 l0 -72 62 -20 c85 -27 90 -35 54 -73 -35 -39 -60 -40 -135 -7 -52 23 -59
24 -85 11 -61 -32 -61 -54 -2 -109 17 -16 31 -33 31 -37 0 -10 -54 -50 -67
-50 -10 0 -123 122 -188 205 -27 33 -68 81 -93 107 l-44 46 33 18 c19 9 53 32
75 51 110 89 208 115 284 74z m-2903 -256 c2 -1 -8 -28 -22 -61 -92 -223 -102
-268 -68 -306 21 -24 73 -48 102 -48 41 0 72 43 106 146 18 54 43 120 55 146
l21 48 42 -21 c23 -12 43 -23 45 -24 2 -2 -5 -20 -16 -42 -11 -21 -32 -78 -47
-128 -36 -120 -60 -159 -118 -197 -109 -70 -252 -23 -304 99 -27 65 -17 117
46 257 33 72 64 144 70 159 l11 28 37 -28 c21 -15 39 -28 40 -28z m2429 -80
c33 -21 60 -48 82 -85 80 -134 13 -314 -137 -365 -63 -21 -108 -19 -171 11
-126 58 -185 161 -160 279 15 74 61 133 130 168 49 25 64 28 131 25 63 -2 83
-8 125 -33z m-1955 -106 c11 -5 61 -17 111 -25 105 -17 162 -40 198 -78 20
-22 25 -40 28 -95 4 -64 3 -69 -26 -97 -17 -17 -45 -35 -64 -40 -29 -9 -33
-14 -30 -39 2 -15 12 -46 23 -67 11 -21 24 -50 29 -63 9 -24 8 -25 -40 -25
l-49 0 -21 57 c-12 31 -29 70 -38 85 -16 28 -72 54 -96 45 -7 -3 -21 -38 -31
-77 -12 -50 -21 -70 -31 -66 -7 3 -31 10 -54 16 -28 7 -40 16 -37 24 26 66 48
166 68 299 13 86 27 157 32 157 5 0 17 -5 28 -11z m1409 -62 c18 -47 18 -47
-3 -52 -122 -26 -132 -30 -129 -50 2 -11 21 -92 42 -180 22 -87 38 -160 37
-161 -1 -1 -20 -5 -43 -8 l-40 -7 -48 183 c-26 100 -49 184 -51 186 -3 3 -92
-21 -122 -34 -10 -4 -13 10 -13 53 l0 58 138 24 c75 13 151 27 167 31 43 11
45 10 65 -43z m-566 -185 c38 -86 88 -191 111 -234 l42 -76 -30 -6 c-16 -3
-44 -6 -61 -6 -28 0 -34 5 -45 38 -8 20 -17 42 -21 47 -5 6 -55 9 -123 7
l-115 -3 -17 -46 -18 -45 -48 4 c-27 3 -53 8 -56 12 -4 4 0 21 10 39 9 18 43
91 76 162 33 72 74 160 92 198 l33 67 50 0 51 -1 69 -157z"/>
<path d="M4888 7893 c-13 -3 -18 -15 -18 -39 l0 -34 63 0 c79 0 103 16 98 68
-1 12 -103 16 -143 5z"/>
<path d="M4950 7743 c-75 -11 -80 -19 -63 -82 6 -22 8 -23 82 -16 105 10 126
31 76 80 -23 24 -40 27 -95 18z"/>
<path d="M6472 7500 c-47 -29 -72 -75 -72 -137 0 -45 4 -54 30 -77 33 -27 101
-42 148 -31 43 9 76 43 97 99 18 48 18 49 -1 85 -23 43 -86 81 -134 81 -19 0
-50 -9 -68 -20z"/>
<path d="M5222 5440 c-6 -41 -19 -129 -27 -195 -9 -66 -30 -213 -46 -326 -16
-113 -29 -222 -29 -242 l0 -37 131 0 131 0 -6 28 c-3 15 -10 59 -16 97 -6 39
-23 153 -40 255 -16 102 -36 235 -44 295 -8 61 -21 130 -29 155 l-13 45 -12
-75z"/>
<path d="M3860 5530 l0 -423 98 6 c109 6 139 15 193 58 73 58 79 82 80 361 0
224 -1 251 -19 290 -43 95 -89 119 -239 126 l-113 5 0 -423z"/>
<path d="M7380 5938 c-51 -14 -88 -44 -113 -91 l-22 -42 0 -755 0 -755 30 -54
c17 -31 46 -64 67 -79 32 -21 46 -24 97 -20 68 5 114 34 153 95 l23 38 3 743
c2 512 -1 756 -8 783 -15 53 -82 126 -129 139 -42 12 -54 11 -101 -2z m92
-855 c29 -26 20 -65 -17 -68 -5 -1 -18 -5 -27 -9 -18 -8 -67 21 -68 40 0 18
32 26 43 12 6 -10 8 -9 4 3 -12 36 33 51 65 22z"/>
<path d="M8470 5546 c0 -222 -3 -412 -6 -421 -6 -14 3 -15 92 -9 140 10 212
46 266 132 22 36 23 43 23 287 0 225 -2 254 -19 285 -51 97 -120 130 -268 130
l-88 0 0 -404z"/>
<path d="M6773 3122 c-29 -9 -113 -69 -113 -81 0 -13 62 -94 75 -98 16 -5 127
89 136 115 7 18 3 28 -16 48 -24 24 -42 27 -82 16z"/>
<path d="M6229 2800 c-40 -12 -75 -38 -87 -66 -20 -42 -15 -107 11 -145 66
-99 260 -55 282 64 19 97 -97 180 -206 147z"/>
<path d="M4490 2600 c-6 -23 -9 -48 -7 -55 3 -7 43 -17 98 -24 104 -13 118 -8
122 45 2 24 -4 32 -34 47 -20 10 -66 20 -102 24 l-65 6 -12 -43z"/>
<path d="M5147 2483 c-14 -21 -29 -50 -32 -65 -7 -27 -6 -28 33 -28 22 0 54
-3 71 -6 26 -5 31 -3 31 12 -1 23 -51 116 -66 121 -6 2 -23 -13 -37 -34z"/>
</g>
</svg>
